<?xml version="1.0" standalone="no"?>
<!DOCTYPE svg PUBLIC "-//W3C//DTD SVG 1.1//EN" "http://www.w3.org/Graphics/SVG/1.1/DTD/svg11.dtd"><svg xmlns="http://www.w3.org/2000/svg" style="background-color:#FFF" width="110" height="135"><path stroke="black" fill="none" stroke-width="1" d="M93.355, 40.291L93.970, 40.397L93.987, 40.410L95.308, 41.047L96.218, 42.150L96.573, 43.145L96.688, 44.278L96.560, 45.521L96.188, 46.855L88.120, 68.295L87.427, 70.043L86.483, 71.897L85.009, 74.004L83.991, 75.197L82.739, 76.513L75.030, 84.120L74.098, 85.222L73.436, 86.436L73.034, 87.765L72.897, 89.201L72.902, 93.624L72.662, 94.808L72.009, 95.774L71.043, 96.427L69.863, 96.667L55.423, 96.667L54.239, 96.423L53.274, 95.774L52.620, 94.803L52.385, 93.624L52.385, 84.085L52.556, 81.115L53.060, 78.432L53.889, 76.073L55.030, 74.068L56.308, 72.491L57.483, 71.389L58.573, 70.615L59.581, 70.026L60.829, 69.278L62.120, 68.205L67.752, 62.598L69.560, 61.145L71.521, 60.231L73.551, 59.880L75.551, 60.115L77.197, 60.850L78.449, 61.974L85.949, 46.637L87.124, 44.440L88.312, 42.799L89.483, 41.641L90.603, 40.885L91.641, 40.457L92.568, 40.286Z"/><path stroke="black" fill="none" stroke-width="1" d="M93.872, 42.850L94.184, 43.231L94.368, 43.769L94.406, 44.444L94.060, 46.060L86.111, 67.201L86, 67.491L85.350, 69.141L84.5, 70.799L83.188, 72.658L82.278, 73.718L81.150, 74.902L73.436, 82.509L72.214, 83.966L71.342, 85.573L70.812, 87.325L70.637, 89.218L70.637, 93.671L70.415, 94.209L69.876, 94.432L55.432, 94.432L54.889, 94.209L54.667, 93.671L54.667, 84.128L54.812, 81.530L55.244, 79.175L55.936, 77.128L56.889, 75.432L57.932, 74.128L58.880, 73.226L60.697, 72.051L62.124, 71.188L63.726, 69.859L69.355, 64.239L70.590, 63.214L71.752, 62.585L72.816, 62.274L73.735, 62.188L74.427, 62.239L74.936, 62.350L76.308, 63.060L76.765, 63.568L77.026, 64.137L77.056, 64.714L76.893, 65.231L76.274, 66.047L68.684, 73.637L68.355, 74.444L68.684, 75.248L69.487, 75.581L70.295, 75.248L77.850, 67.688L78.620, 66.791L79.115, 65.829L87.991, 47.650L88.004, 47.628L88.735, 46.197L89.470, 45.034L90.205, 44.120L90.919, 43.436L91.611, 42.962L92.261, 42.684L93.393, 42.628Z"/><path stroke="black" fill="none" stroke-width="1" d="M8.359, 40.483L9.402, 40.906L10.517, 41.662L11.688, 42.821L12.872, 44.462L14.043, 46.658L21.543, 62L22.791, 60.872L24.440, 60.141L26.440, 59.902L28.466, 60.256L30.427, 61.171L32.244, 62.620L37.872, 68.231L39.162, 69.299L40.410, 70.051L41.419, 70.641L42.513, 71.415L43.692, 72.517L44.970, 74.090L46.120, 76.094L46.949, 78.453L47.453, 81.137L47.620, 84.111L47.620, 93.645L47.380, 94.829L46.726, 95.795L45.761, 96.449L44.581, 96.688L30.141, 96.688L28.957, 96.449L27.991, 95.795L27.342, 94.829L27.103, 93.650L27.103, 89.201L26.966, 87.765L26.564, 86.440L25.902, 85.222L24.970, 84.120L17.261, 76.513L16.004, 75.197L14.987, 74L13.513, 71.893L12.564, 70.038L11.872, 68.282L11.761, 68L3.803, 46.872L3.432, 45.538L3.299, 44.295L3.415, 43.162L3.774, 42.171L4.684, 41.077L6.004, 40.432L6.021, 40.423L6.641, 40.316L7.432, 40.308Z"/><path stroke="black" fill="none" stroke-width="1" d="M7.726, 42.662L8.376, 42.940L9.064, 43.415L9.782, 44.098L10.513, 45.013L11.252, 46.179L11.983, 47.611L11.991, 47.628L20.872, 65.808L21.368, 66.774L22.132, 67.671L29.692, 75.226L30.496, 75.556L31.303, 75.226L31.632, 74.423L31.303, 73.615L23.714, 66.026L23.094, 65.209L22.932, 64.692L22.962, 64.115L23.222, 63.547L23.679, 63.038L25.051, 62.329L25.949, 62.179L27.256, 62.274L28.855, 62.868L29.726, 63.436L30.628, 64.226L36.261, 69.838L37.863, 71.162L39.291, 72.026L41.107, 73.205L42.056, 74.103L43.098, 75.406L44.047, 77.103L44.744, 79.154L45.171, 81.504L45.316, 84.107L45.321, 93.650L45.329, 93.650L45.107, 94.188L44.564, 94.410L30.128, 94.410L29.590, 94.188L29.368, 93.650L29.372, 89.201L29.197, 87.308L28.671, 85.556L27.795, 83.944L26.573, 82.487L18.872, 74.885L17.744, 73.705L16.829, 72.645L15.517, 70.791L14.667, 69.128L14.013, 67.474L5.940, 46.068L5.590, 44.432L5.628, 43.756L5.803, 43.209L6.115, 42.833L6.590, 42.611Z"/><path stroke="black" fill="none" stroke-width="1" d="M45.021, 3.457L46.453, 3.893L47.769, 4.598L48.932, 5.560L50, 6.910L51.073, 5.573L52.239, 4.607L53.556, 3.902L54.979, 3.470L56.483, 3.321L58.556, 3.603L60.444, 4.423L62.043, 5.718L63.252, 7.432L64.252, 7.380L66.145, 7.577L67.932, 8.132L69.568, 9.026L71.013, 10.239L72.397, 12.051L73.286, 14.081L73.684, 16.235L73.581, 18.410L75.846, 20.056L77.568, 22.209L78.667, 24.744L79.051, 27.530L78.855, 29.560L78.269, 31.496L77.316, 33.278L76.021, 34.850L76.585, 36.551L76.803, 38.321L76.675, 40.103L76.201, 41.850L75.410, 43.453L74.333, 44.855L73.009, 46.026L71.470, 46.932L71.573, 49.051L71.184, 51.111L70.325, 53.021L69.021, 54.701L67.940, 55.628L66.731, 56.372L65.419, 56.906L64.030, 57.231L63.718, 58.590L63.179, 59.838L62.432, 60.962L61.504, 61.932L60.419, 62.726L59.205, 63.321L57.885, 63.692L56.483, 63.821L54.979, 63.675L53.547, 63.239L52.231, 62.534L51.068, 61.573L50, 60.218L48.932, 61.573L47.761, 62.534L46.444, 63.239L45.021, 63.675L43.521, 63.821L42.115, 63.692L40.795, 63.316L39.577, 62.722L38.496, 61.927L37.568, 60.957L36.821, 59.838L36.278, 58.585L35.970, 57.231L34.581, 56.906L33.269, 56.372L32.060, 55.628L30.983, 54.701L29.679, 53.021L28.821, 51.111L28.427, 49.051L28.530, 46.932L26.991, 46.021L25.667, 44.846L24.594, 43.440L23.799, 41.842L23.325, 40.103L23.197, 38.321L23.415, 36.551L23.979, 34.842L22.701, 33.295L21.748, 31.530L21.154, 29.590L20.949, 27.521L21.333, 24.739L22.427, 22.205L24.145, 20.047L26.419, 18.397L26.321, 16.218L26.714, 14.068L27.603, 12.038L28.987, 10.226L30.650, 8.872L32.547, 7.936L34.607, 7.440L36.752, 7.419L37.962, 5.709L39.560, 4.419L41.444, 3.594L43.521, 3.308Z"/><path stroke="black" fill="none" stroke-width="1" d="M44.581, 5.688L45.581, 5.991L46.5, 6.487L47.316, 7.162L47.983, 7.970L48.470, 8.889L48.769, 9.880L48.868, 10.923L48.868, 35.675L46.855, 35.517L44.996, 36.026L43.415, 37.073L42.226, 38.526L42.107, 39.389L42.637, 40.085L43.205, 40.244L43.765, 40.103L44.188, 39.688L45.021, 38.701L46.150, 38.038L47.462, 37.803L48.859, 38.111L48.859, 56.209L48.765, 57.248L48.470, 58.235L47.979, 59.150L47.308, 59.970L46.496, 60.645L45.573, 61.141L44.573, 61.449L43.517, 61.551L41.705, 61.231L40.145, 60.346L38.966, 58.996L38.291, 57.282L39.774, 56.996L41.179, 56.466L42.474, 55.709L43.628, 54.731L43.962, 53.927L43.628, 53.120L42.825, 52.791L42.017, 53.120L41.009, 53.949L39.863, 54.560L38.624, 54.932L37.321, 55.051L37.299, 55.051L35.987, 54.923L34.744, 54.543L33.607, 53.927L32.603, 53.090L31.756, 52.051L31.158, 50.897L30.799, 49.667L30.679, 48.402L30.803, 47.137L31.171, 45.906L31.774, 44.756L32.620, 43.718L32.953, 42.915L32.620, 42.111L31.816, 41.778L31.013, 42.111L29.987, 43.333L29.205, 44.718L28.141, 44.030L27.231, 43.171L26.487, 42.162L25.932, 41.026L25.603, 39.868L25.483, 38.675L25.564, 37.479L25.855, 36.308L27.415, 37.098L28.017, 37.158L28.538, 36.915L28.876, 36.457L28.940, 35.855L28.714, 35.333L28.265, 34.987L26.192, 33.769L24.607, 32.030L23.590, 29.906L23.235, 27.526L23.504, 25.474L24.274, 23.585L25.483, 21.953L27.085, 20.658L27.944, 22.226L29.085, 23.607L29.889, 23.936L30.697, 23.607L31.026, 22.799L30.697, 21.996L29.778, 20.872L29.120, 19.624L28.722, 18.295L28.585, 16.919L28.705, 15.543L29.090, 14.209L29.731, 12.953L30.637, 11.816L31.739, 10.889L32.987, 10.209L34.346, 9.786L35.778, 9.645L37.209, 9.774L38.577, 10.175L39.838, 10.842L40.949, 11.752L41.756, 12.085L42.560, 11.752L42.893, 10.949L42.560, 10.145L40.953, 8.850L39.098, 7.944L39.957, 6.953L41.017, 6.209L42.226, 5.744L43.530, 5.585Z"/><path stroke="black" fill="none" stroke-width="1" d="M57.786, 5.748L58.991, 6.214L60.051, 6.957L60.910, 7.949L59.060, 8.863L57.449, 10.150L57.120, 10.953L57.449, 11.761L58.256, 12.090L59.060, 11.761L60.162, 10.855L61.410, 10.192L62.761, 9.786L64.179, 9.650L64.231, 9.650L65.662, 9.795L67.021, 10.214L68.274, 10.897L69.372, 11.821L70.274, 12.953L70.915, 14.209L71.295, 15.547L71.415, 16.923L71.278, 18.299L70.880, 19.628L70.226, 20.880L69.312, 22L68.983, 22.803L69.312, 23.611L70.115, 23.940L70.923, 23.611L72.064, 22.231L72.923, 20.658L74.530, 21.957L75.739, 23.594L76.504, 25.483L76.774, 27.530L76.419, 29.919L75.402, 32.038L73.816, 33.774L71.744, 34.991L71.124, 35.603L71.111, 36.474L71.726, 37.090L72.594, 37.103L74.154, 36.312L74.440, 37.479L74.526, 38.671L74.406, 39.868L74.077, 41.043L73.521, 42.175L72.778, 43.184L71.868, 44.043L70.803, 44.722L70.017, 43.338L68.996, 42.115L68.192, 41.782L67.389, 42.115L67.056, 42.919L67.389, 43.722L68.235, 44.761L68.838, 45.910L69.205, 47.137L69.329, 48.406L69.209, 49.671L68.850, 50.902L68.248, 52.056L67.406, 53.094L66.397, 53.927L65.252, 54.543L64.013, 54.923L62.705, 55.056L62.688, 55.056L61.385, 54.932L60.145, 54.556L59, 53.953L57.987, 53.124L57.184, 52.795L56.380, 53.124L56.047, 53.932L56.380, 54.735L57.534, 55.709L58.829, 56.470L60.235, 57L61.718, 57.286L61.051, 58.983L59.876, 60.338L58.316, 61.231L56.487, 61.556L55.436, 61.453L54.436, 61.150L53.513, 60.654L52.701, 59.979L52.026, 59.167L51.534, 58.248L51.235, 57.248L51.141, 56.201L51.141, 46.141L52.124, 46.658L53.201, 46.979L54.598, 47.098L55.970, 46.897L57.261, 46.393L58.419, 45.603L58.803, 44.812L58.517, 43.991L57.735, 43.607L56.910, 43.889L56.197, 44.380L55.389, 44.697L54.521, 44.821L53.641, 44.752L52.175, 44.094L51.141, 42.850L51.141, 10.932L51.235, 9.893L51.534, 8.906L52.021, 7.991L52.692, 7.167L53.504, 6.491L54.427, 5.996L55.427, 5.692L56.483, 5.590Z"/><path stroke="black" fill="none" stroke-width="1" d="M44.171, 17.521L44.701, 18.214L44.885, 19.325L44.850, 20.440L44.594, 21.530L44.128, 22.556L43.496, 23.449L42.709, 24.197L41.795, 24.782L40.778, 25.184L41.346, 26.342L41.641, 27.581L41.654, 28.855L41.380, 30.111L40.812, 31.308L40, 32.321L38.979, 33.124L37.778, 33.684L37.389, 33.739L36.731, 33.530L36.312, 32.957L36.372, 32.085L37.030, 31.517L38.372, 30.697L39.205, 29.368L39.385, 28.081L39.094, 26.855L38.380, 25.816L37.303, 25.085L36.316, 24.624L35.397, 23.970L34.637, 23.154L34.051, 22.209L33.658, 21.158L33.774, 20.291L34.466, 19.765L35.329, 19.880L35.855, 20.573L36.585, 21.949L37.846, 22.855L38.111, 22.957L39.081, 23.128L40.068, 23.009L41.274, 22.415L42.158, 21.406L42.594, 20.137L42.5, 18.795L42.615, 17.932L43.308, 17.406Z"/><path stroke="black" fill="none" stroke-width="1" d="M60.470, 19.671L60.526, 20.538L59.949, 21.192L58.885, 22L58.214, 23.158L58.030, 24.491L58.372, 25.791L59.171, 26.842L60.265, 27.5L61.521, 27.714L62.803, 27.436L62.949, 27.368L62.970, 27.355L63.111, 27.295L64.363, 26.953L65.645, 26.897L66.906, 27.132L68.098, 27.650L68.628, 28.338L68.521, 29.205L67.829, 29.735L66.962, 29.628L65.457, 29.175L63.910, 29.436L63.718, 29.517L62.756, 30.218L62.103, 31.175L61.812, 32.299L61.919, 33.483L62.513, 34.692L63.521, 35.573L64.047, 36.265L63.940, 37.132L63.517, 37.556L62.953, 37.705L62.385, 37.556L61.470, 36.902L60.705, 36.085L60.120, 35.141L59.722, 34.085L59.547, 33.009L59.577, 31.927L59.808, 30.872L60.239, 29.872L59.017, 29.453L57.932, 28.782L57.026, 27.889L56.329, 26.799L55.927, 25.718L55.752, 24.607L55.799, 23.504L56.056, 22.436L56.509, 21.436L57.150, 20.534L57.966, 19.765L58.949, 19.154L59.816, 19.098Z"/><path stroke="black" fill="none" stroke-width="1" d="M43.547, 46.120L44.598, 46.496L45.560, 47.051L46.021, 47.786L45.829, 48.641L45.094, 49.103L44.239, 48.910L42.983, 48.329L41.577, 48.222L40.197, 48.662L39.017, 49.731L38.607, 50.081L38.098, 50.201L37.513, 50.038L37.111, 49.628L36.957, 49.077L37.115, 48.487L37.175, 48.389L38.068, 47.397L39.073, 46.671L40.162, 46.197L41.291, 45.953L42.432, 45.932Z"/></svg>