<svg xmlns="http://www.w3.org/2000/svg" version="1.1" viewBox="-5.0 -10.0 110.0 135.0">
 <path d="m96.219 42.148c-0.46094-0.87109-1.2305-1.4805-2.2305-1.7383-0.011719 0-0.011719 0-0.019531-0.011718-1.3789-0.35156-4.9297-0.42969-8.0195 6.2383l-7.5 15.34c-0.67969-0.85937-1.6914-1.5195-2.8984-1.8594-2.6094-0.71875-5.5312 0.19922-7.8008 2.4805l-5.6289 5.6094c-0.89844 0.89844-1.6992 1.3516-2.5391 1.8203-1.3008 0.73047-2.7812 1.5586-4.5508 4.0391-1.7305 2.4219-2.6484 5.8789-2.6484 10.02v9.5391c0 1.6719 1.3594 3.0391 3.0391 3.0391h14.441c1.6719 0 3.0391-1.3594 3.0391-3.0391l-0.003906-4.4258c0-1.9805 0.71875-3.6914 2.1289-5.0781l7.7109-7.6094c3.6797-3.6797 4.5117-5.8906 5.3789-8.2188l8.0703-21.441c0.66406-1.8203 0.66406-3.4805 0.03125-4.7031zm-2.1602 3.9102-7.9492 21.141-0.10938 0.28906c-0.85156 2.2812-1.5312 4.0781-4.8516 7.4102l-7.7109 7.6094c-1.8594 1.8398-2.8008 4.0898-2.8008 6.7109v4.4492c0 0.42188-0.33984 0.76172-0.76172 0.76172h-14.445c-0.42188 0-0.76172-0.33984-0.76172-0.76172v-9.5391c0-3.6094 0.78906-6.6992 2.2188-8.6992 1.4805-2.0703 2.5586-2.6797 3.8086-3.3789 0.89063-0.5 1.9102-1.0703 3.0312-2.1914l5.6289-5.6211c1.6719-1.6719 3.2617-2.0508 4.3789-2.0508 0.51172 0 0.92969 0.078125 1.1992 0.16016 1.0703 0.30078 1.8906 1 2.0898 1.7891 0.19922 0.80078-0.30078 1.4805-0.75 1.9102-0.011719 0.011719-0.011719 0.011719-0.019532 0.019531l-7.5703 7.5703c-0.44141 0.44141-0.44141 1.1719 0 1.6094 0.44141 0.44141 1.1719 0.44922 1.6094 0l7.5586-7.5586c0.60156-0.57031 1.0195-1.1992 1.2617-1.8594l8.8789-18.18c0-0.011719 0.011718-0.019532 0.011718-0.019532 1.9297-4.1914 4.0508-5.3281 5.3906-5 0.37891 0.10156 0.62891 0.28906 0.78906 0.60156 0.34766 0.60938 0.28516 1.6797-0.125 2.8281zm-53.648 23.992c-0.83984-0.46875-1.6406-0.92188-2.5391-1.8203l-5.6289-5.6094c-2.2812-2.2812-5.1914-3.1992-7.8008-2.4805-1.2109 0.32812-2.2305 1-2.8984 1.8594l-7.5-15.34c-3.0781-6.6719-6.6289-6.5898-8.0195-6.2383-0.011719 0-0.011719 0-0.019532 0.011719-1 0.26953-1.7695 0.87109-2.2305 1.7383-0.64063 1.2188-0.62891 2.8789 0.03125 4.6992l7.957 21.129 0.10938 0.28125c0.87891 2.3398 1.6992 4.5508 5.3906 8.2305l7.7109 7.6094c1.4102 1.3906 2.1289 3.1016 2.1289 5.0781v4.4492c0 1.6719 1.3594 3.0391 3.0391 3.0391h14.441c1.6719 0 3.0391-1.3594 3.0391-3.0391v-9.5391c0-4.1406-0.91016-7.6016-2.6484-10.02-1.7812-2.4805-3.2617-3.3086-4.5625-4.0391zm4.918 23.598c0 0.42187-0.33984 0.76172-0.76172 0.76172h-14.438c-0.42188 0-0.76172-0.33984-0.76172-0.76172l0.003906-4.4492c0-2.6094-0.94141-4.8711-2.8008-6.7109l-7.6992-7.6016c-3.3281-3.3281-4-5.1289-4.8594-7.4102l-8.0703-21.406c-0.42188-1.1719-0.46875-2.2383-0.14062-2.8594 0.16016-0.30078 0.41016-0.5 0.78906-0.60156 1.3398-0.32812 3.4609 0.80859 5.3906 5 0 0.011719 0.011719 0.019531 0.011719 0.019531l8.8789 18.18c0.23828 0.66016 0.66016 1.2891 1.2617 1.8594l7.5586 7.5586c0.44141 0.44141 1.1719 0.44141 1.6094 0 0.44141-0.44141 0.44141-1.1719 0-1.6094l-7.5898-7.5898c-0.44922-0.42969-0.94922-1.1094-0.75-1.9102 0.19922-0.78906 1.0195-1.4883 2.0898-1.7891 0.87109-0.23828 3.1484-0.53906 5.5781 1.8984l5.6289 5.6094c1.1289 1.1211 2.1406 1.6914 3.0312 2.1914 1.25 0.69922 2.3281 1.3086 3.8086 3.3789 1.4297 2 2.2188 5.0898 2.2188 8.6992l0.003906 9.543zm18.703-36.418c1.8906-0.28125 3.6289-1.1602 4.9883-2.5312 2.0898-2.1094 2.9102-5.0312 2.4492-7.7695 2.1719-1 3.8711-2.8203 4.7305-5.0781 0.87109-2.2891 0.80078-4.8008-0.17969-7 1.9102-1.8984 3.0312-4.5117 3.0312-7.3203 0-3.8281-2.1289-7.3281-5.4688-9.1211 0.46094-2.8789-0.39062-5.9414-2.5703-8.1719-1.7812-1.8281-4.1797-2.8398-6.7617-2.8594-0.33984 0-0.67188 0.011719-1 0.050782-1.3008-2.5195-3.8906-4.1094-6.7695-4.1094-2.0391 0-3.9609 0.80078-5.4102 2.25-0.41016 0.41016-0.76953 0.85938-1.0703 1.3398-0.30078-0.48047-0.66016-0.92969-1.0703-1.3516-1.4414-1.4492-3.3711-2.25-5.4102-2.25-2.8711 0-5.4609 1.6016-6.7695 4.1094-0.32812-0.03125-0.67188-0.050781-1-0.050781-2.5703 0.019531-4.9688 1.0312-6.7617 2.8594-2.1797 2.2305-3.0312 5.2891-2.5703 8.1719-3.3398 1.7812-5.4688 5.3008-5.4688 9.1211 0 2.8203 1.1211 5.4297 3.0312 7.3203-0.98047 2.1992-1.0508 4.7109-0.17969 7 0.85938 2.2617 2.5586 4.0781 4.7305 5.0898-0.46094 2.7383 0.35938 5.6484 2.4492 7.7695 1.3594 1.3711 3.1016 2.25 4.9883 2.5312 0.5 3.7383 3.7188 6.5898 7.5508 6.5898 2.0391 0 3.9609-0.80078 5.4102-2.25 0.41016-0.41016 0.76953-0.87109 1.0703-1.3516 0.30078 0.48047 0.66016 0.94141 1.0703 1.3516 1.4414 1.4492 3.3594 2.25 5.4102 2.25 3.8281 0.007813 7.0508-2.8516 7.5508-6.5898zm-15.172-1.0195c0.011719 1.4102-0.53906 2.7383-1.5508 3.7617-1.0117 1.0195-2.3594 1.5781-3.7891 1.5781-2.5586 0-4.7305-1.8203-5.2305-4.2695 2.0195-0.21094 3.8906-1.1016 5.3398-2.5508 0.44141-0.44141 0.44141-1.1719 0-1.6094-0.44141-0.44141-1.1719-0.44141-1.6094 0-1.25 1.25-2.9102 1.9297-4.6992 1.9297h-0.019531c-1.7891 0-3.4609-0.69922-4.6992-1.9609-2.5703-2.5898-2.5586-6.7891 0.019532-9.3711 0.44141-0.44141 0.44141-1.1719 0-1.6094-0.44141-0.44141-1.1719-0.44141-1.6094 0-0.78125 0.78125-1.3789 1.6602-1.8086 2.6094-1.4883-0.78125-2.6602-2.0898-3.2695-3.6914-0.57812-1.5312-0.60156-3.2109-0.078125-4.7188 0.48828 0.30078 1.0117 0.55859 1.5586 0.78906 0.57813 0.23828 1.25-0.050781 1.4805-0.62891 0.23828-0.57812-0.050781-1.25-0.62891-1.4805-3.0586-1.2383-5.0312-4.1719-5.0312-7.4609 0-2.8086 1.4805-5.4102 3.8516-6.8711 0.46094 1.0781 1.1289 2.0781 2 2.9492 0.44141 0.44141 1.1719 0.44141 1.6094 0 0.44141-0.44141 0.44141-1.1719 0-1.6094-2.7891-2.7891-2.8203-7.3516-0.058593-10.18 1.3516-1.3906 3.1797-2.1602 5.1406-2.1719 1.9688-0.011719 3.7891 0.73828 5.1719 2.1094 0.44141 0.44141 1.1719 0.44141 1.6094 0 0.44141-0.44141 0.44141-1.1719 0-1.6094-0.98828-0.98828-2.1719-1.7383-3.4609-2.1992 0.98047-1.4609 2.6289-2.3594 4.4297-2.3594 1.4297 0 2.7812 0.55859 3.7891 1.5781 1.0117 1.0117 1.5586 2.3516 1.5508 3.7617v0.039063 24.711c-2.7305-0.71094-5.3789 0.69922-6.6406 2.8516-0.32031 0.53906-0.14062 1.2383 0.41016 1.5586 0.17969 0.10937 0.37891 0.16016 0.57031 0.16016 0.39062 0 0.76953-0.19922 0.98047-0.55859 0.87109-1.4805 2.8008-2.3906 4.6719-1.5781v18.078 0.023438zm2.2812-0.011719v-10.059c0.62109 0.39844 1.3086 0.69922 2.0586 0.83984 0.39844 0.078125 0.80078 0.12109 1.1992 0.12109 1.4688 0 2.9219-0.53125 4.0195-1.5 0.46875-0.42187 0.51953-1.1406 0.10156-1.6094-0.42188-0.46875-1.1406-0.51953-1.6094-0.10156-0.87109 0.76953-2.1016 1.0898-3.2695 0.85938-1.1016-0.21875-1.9688-0.89844-2.5-1.8984v-31.922c-0.011719-1.4102 0.53906-2.7383 1.5508-3.7617 1.0117-1.0195 2.3594-1.5781 3.7891-1.5781 1.8086 0 3.4609 0.89844 4.4297 2.3594-1.2891 0.46875-2.4609 1.2109-3.4609 2.1992-0.44141 0.44141-0.44141 1.1719 0 1.6094 0.44141 0.44141 1.1719 0.44141 1.6094 0 1.3594-1.3594 3.1797-2.1094 5.1211-2.1094h0.050781c1.9609 0.011718 3.7891 0.78125 5.1406 2.1719 2.75 2.8203 2.7188 7.3906-0.058594 10.18-0.44141 0.44141-0.44141 1.1719 0 1.6094 0.44141 0.44141 1.1719 0.44141 1.6094 0 0.87109-0.87109 1.5391-1.8789 2-2.9492 2.3594 1.4492 3.8516 4.0508 3.8516 6.8711 0 3.3008-1.9805 6.2305-5.0312 7.4609-0.57813 0.23828-0.85938 0.89844-0.62891 1.4805 0.23828 0.57812 0.89844 0.85938 1.4805 0.62891 0.55078-0.21875 1.0703-0.48047 1.5586-0.78906 0.51953 1.5195 0.5 3.1914-0.078125 4.7305-0.60938 1.6016-1.7812 2.9102-3.2695 3.6797-0.42969-0.94922-1.0312-1.8281-1.8086-2.6094-0.44141-0.44141-1.1719-0.44141-1.6094 0-0.44141 0.44141-0.44141 1.1719 0 1.6094 2.5781 2.5781 2.5898 6.7812 0.019531 9.3711-1.25 1.2617-2.9219 1.9492-4.6992 1.9609h-0.019531c-1.7812 0-3.4492-0.69141-4.6992-1.9297-0.44141-0.44141-1.1719-0.44141-1.6094 0-0.44141 0.44141-0.44141 1.1719 0 1.6094 1.4492 1.4492 3.3203 2.3398 5.3398 2.5508-0.5 2.4414-2.6719 4.2695-5.2305 4.2695-1.4297 0-2.7812-0.55859-3.7891-1.5781-1.0195-1.0156-1.5703-2.3555-1.5586-3.7773zm-13.75-22.461c-0.48047 0-0.92188-0.30078-1.0781-0.78125-0.19922-0.60156 0.12109-1.2383 0.71875-1.4414 1.0312-0.33984 1.8203-1.1289 2.1719-2.1484 0.58984-1.7109-0.26172-3.5781-1.8984-4.2812-0.33984-0.12109-0.67188-0.26953-0.98828-0.46094-1.3203-0.76172-2.2695-2-2.6602-3.4688-0.16016-0.60938 0.19922-1.2305 0.80859-1.3906s1.2305 0.19922 1.3906 0.80859c0.23828 0.89062 0.80859 1.6289 1.6016 2.0898 0.12891 0.070313 0.26172 0.14063 0.39062 0.19141 0.089844 0.03125 0.17969 0.058593 0.26172 0.10156 0.62891 0.21094 1.3086 0.23047 1.9609 0.050781 0.89063-0.23828 1.6289-0.80859 2.0898-1.6016 0.46094-0.80078 0.57812-1.7188 0.33984-2.6094-0.16016-0.60938 0.19922-1.2305 0.80859-1.3906s1.2305 0.19922 1.3906 0.80859c0.39844 1.4688 0.19141 3.0117-0.57031 4.3398-0.73828 1.2891-1.9297 2.2188-3.3516 2.6289 0.91016 1.4219 1.1797 3.2188 0.60156 4.9297-0.57812 1.6992-1.8984 3-3.6016 3.5703-0.14844 0.035156-0.26562 0.054687-0.38672 0.054687zm22.848-3.8672c-1.6406-0.35938-3.1094-1.4414-3.9102-3.0703-1.3906-2.8281-0.21094-6.2617 2.6211-7.6484 0.55859-0.28125 1.25-0.039063 1.5195 0.51953 0.28125 0.55859 0.039062 1.25-0.51953 1.5195-0.82031 0.39844-1.4414 1.1016-1.7383 1.9688-0.30078 0.87109-0.23828 1.8008 0.16016 2.6289 0.80859 1.6484 2.7617 2.3594 4.4297 1.6484 0.050781-0.019531 0.10156-0.050781 0.14844-0.070312 0.011719 0 0.011719-0.011719 0.019531-0.011719 0.050781-0.019531 0.089844-0.039063 0.14062-0.058594 1.5703-0.62891 3.4102-0.55859 4.9883 0.35156 0.53906 0.30859 0.73047 1.0117 0.42188 1.5586-0.30859 0.53906-1.0117 0.73047-1.5586 0.42188-0.96875-0.55859-2.0898-0.58984-3.0508-0.19141-0.058594 0.03125-0.12109 0.058594-0.19141 0.078125-0.58984 0.28906-1.1094 0.75-1.4609 1.3594-0.46094 0.80078-0.57812 1.7188-0.33984 2.6094s0.80859 1.6289 1.6016 2.0898c0.53906 0.30859 0.73047 1.0117 0.42188 1.5586-0.21094 0.37109-0.58984 0.57031-0.98828 0.57031-0.19141 0-0.39062-0.050781-0.57031-0.14844-1.3203-0.76172-2.2695-2-2.6602-3.4688-0.37109-1.4141-0.19141-2.9141 0.51562-4.2148zm-14.68 17.18c0.51172 0.35938 0.62891 1.0703 0.26953 1.5898-0.35938 0.51172-1.0703 0.62891-1.5898 0.26953-1.5-1.0586-3.8594-1.0508-5.2188 0.82031-0.21875 0.30859-0.57031 0.46875-0.92188 0.46875-0.23047 0-0.46875-0.070313-0.67188-0.21875-0.51172-0.37109-0.62109-1.0781-0.25-1.5898 2.1953-3.0117 5.9844-3.0391 8.3828-1.3398z"/>
</svg>